<svg width="229" height="405" viewBox="0 0 229 405" fill="none" xmlns="http://www.w3.org/2000/svg">
<path id="capital" d="M68.0386 39.045L47.1654 35.4249V57.7917L44.4399 81.1929L59.4633 110.864L100.146 116.101L130.658 93.7338L142.424 69.7509L130.658 47.3841L107.591 14.0924L85.6546 25.0172L68.0386 39.045Z" fill="#F7D2D7"/>
<path id="gangwon-do" d="M139.167 20.8154L107.591 14.0924L130.658 47.3841L142.424 69.7509L130.658 93.7338L173.468 102.525H200.191V86.9462V51.5213L193.81 25.0172L180.382 0L166.488 14.0924L139.167 20.8154Z" fill="#FFEEBE"/>
<path id="gyeongsangbuk-do" d="M200.191 102.525H173.468L153.659 129.611L142.424 161.869L139.167 184.3L151 209.253L166.488 209.77L176.659 218.626L200.191 223.28L218.406 233.688V218.626L228.045 179.581L224.322 143.122L210.894 116.101L200.191 102.525Z" fill="#FEE0CA"/>
<path id="gyeongsangnam-do" d="M218.406 233.688L200.191 223.28L176.659 218.626L166.488 209.77L151 209.253L135.046 237.373L116.167 279L121 302.5L100.146 323.285L180.382 312.748L205.111 292.514L218.406 274.672V233.688Z" fill="#F7D2D2"/>
<path id="chungcheongbuk-do" d="M173.468 102.525L130.658 93.7338L100.146 116.101L107.591 133.813L119.424 152.495L111.38 167.622L116.167 187.403L139.167 184.3L142.424 161.869L153.659 129.611L173.468 102.525Z" fill="#DFF7D2"/>
<path id="chungcheongnam-do" d="M100.146 116.101L59.4633 110.864L44.4399 122.306L28.4194 143.122L44.4399 164.519L39.6537 179.581L62.6541 195.742L81.9319 184.3L116.167 187.403L111.38 167.622L119.424 152.495L107.591 133.813L100.146 116.101Z" fill="#F7D2EA"/>
<path id="jeollabuk-do" d="M81.9319 184.3L62.6541 195.742L47.1654 218.626L28.4194 233.688L62.6541 249.526L81.9319 238.213L111.38 249.526L135.046 237.373L151 209.253L139.167 184.3L116.167 187.403L81.9319 184.3Z" fill="#D2F4F7"/>
<path id="jeollanam-do" d="M62.6541 249.526L28.4194 233.688L11.6676 256.831V286.825L0.0344419 312.748L11.6676 337.054L68.0386 342.742L100.146 323.285L121 302.5L116.167 279L135.046 237.373L111.38 249.526L81.9319 238.213L62.6541 249.526Z" fill="#EFD2F7"/>
<path id="jeju-do" d="M4.48802 367.823L0.0341797 392L33.7371 404.088L58.2 392L50.6883 367.823H4.48802Z" fill="#D2DEF7"/>
</svg>
