<svg width="35" height="43" viewBox="0 0 35 43" fill="none" xmlns="http://www.w3.org/2000/svg">
<path d="M29.1667 43C27.5463 43 26.169 42.3729 25.0347 41.1188C23.9005 39.8646 23.3333 38.3417 23.3333 36.55C23.3333 36.2992 23.3495 36.0394 23.3819 35.7706C23.4144 35.5019 23.463 35.26 23.5278 35.045L9.81944 26.23C9.26852 26.7675 8.65278 27.1885 7.97222 27.4931C7.29167 27.7977 6.5787 27.95 5.83333 27.95C4.21296 27.95 2.83565 27.3229 1.70139 26.0688C0.56713 24.8146 0 23.2917 0 21.5C0 19.7083 0.56713 18.1854 1.70139 16.9313C2.83565 15.6771 4.21296 15.05 5.83333 15.05C6.5787 15.05 7.29167 15.2023 7.97222 15.5069C8.65278 15.8115 9.26852 16.2325 9.81944 16.77L23.5278 7.955C23.463 7.74 23.4144 7.49813 23.3819 7.22938C23.3495 6.96063 23.3333 6.70083 23.3333 6.45C23.3333 4.65833 23.9005 3.13542 25.0347 1.88125C26.169 0.627083 27.5463 0 29.1667 0C30.787 0 32.1644 0.627083 33.2986 1.88125C34.4329 3.13542 35 4.65833 35 6.45C35 8.24167 34.4329 9.76458 33.2986 11.0188C32.1644 12.2729 30.787 12.9 29.1667 12.9C28.4213 12.9 27.7083 12.7477 27.0278 12.4431C26.3472 12.1385 25.7315 11.7175 25.1806 11.18L11.4722 19.995C11.537 20.21 11.5856 20.4519 11.6181 20.7206C11.6505 20.9894 11.6667 21.2492 11.6667 21.5C11.6667 21.7508 11.6505 22.0106 11.6181 22.2794C11.5856 22.5481 11.537 22.79 11.4722 23.005L25.1806 31.82C25.7315 31.2825 26.3472 30.8615 27.0278 30.5569C27.7083 30.2523 28.4213 30.1 29.1667 30.1C30.787 30.1 32.1644 30.7271 33.2986 31.9813C34.4329 33.2354 35 34.7583 35 36.55C35 38.3417 34.4329 39.8646 33.2986 41.1188C32.1644 42.3729 30.787 43 29.1667 43ZM29.1667 8.6C29.7176 8.6 30.1794 8.39396 30.5521 7.98188C30.9248 7.56979 31.1111 7.05917 31.1111 6.45C31.1111 5.84083 30.9248 5.33021 30.5521 4.91813C30.1794 4.50604 29.7176 4.3 29.1667 4.3C28.6157 4.3 28.1539 4.50604 27.7813 4.91813C27.4086 5.33021 27.2222 5.84083 27.2222 6.45C27.2222 7.05917 27.4086 7.56979 27.7813 7.98188C28.1539 8.39396 28.6157 8.6 29.1667 8.6ZM5.83333 23.65C6.38426 23.65 6.84606 23.444 7.21875 23.0319C7.59144 22.6198 7.77778 22.1092 7.77778 21.5C7.77778 20.8908 7.59144 20.3802 7.21875 19.9681C6.84606 19.556 6.38426 19.35 5.83333 19.35C5.28241 19.35 4.8206 19.556 4.44792 19.9681C4.07523 20.3802 3.88889 20.8908 3.88889 21.5C3.88889 22.1092 4.07523 22.6198 4.44792 23.0319C4.8206 23.444 5.28241 23.65 5.83333 23.65ZM29.1667 38.7C29.7176 38.7 30.1794 38.494 30.5521 38.0819C30.9248 37.6698 31.1111 37.1592 31.1111 36.55C31.1111 35.9408 30.9248 35.4302 30.5521 35.0181C30.1794 34.606 29.7176 34.4 29.1667 34.4C28.6157 34.4 28.1539 34.606 27.7813 35.0181C27.4086 35.4302 27.2222 35.9408 27.2222 36.55C27.2222 37.1592 27.4086 37.6698 27.7813 38.0819C28.1539 38.494 28.6157 38.7 29.1667 38.7Z" fill="#1D1B20"/>
</svg>
