<svg width="48" height="48" viewBox="0 0 48 48" fill="none" xmlns="http://www.w3.org/2000/svg">
<path d="M34.0001 25.9997L26.0001 43.9997C24.4088 43.9997 22.8826 43.3676 21.7574 42.2424C20.6322 41.1172 20.0001 39.591 20.0001 37.9997V29.9997H8.68006C8.10025 30.0063 7.52593 29.8867 6.99692 29.6493C6.4679 29.4119 5.99683 29.0623 5.61634 28.6247C5.23586 28.1872 4.95505 27.6721 4.79338 27.1152C4.63171 26.5584 4.59305 25.973 4.68006 25.3997L7.44006 7.39975C7.58471 6.44593 8.06919 5.57653 8.80425 4.95173C9.53931 4.32694 10.4754 3.98884 11.4401 3.99975H34.0001M34.0001 25.9997V3.99975M34.0001 25.9997H39.3401C40.472 26.0198 41.5719 25.6235 42.4309 24.8861C43.2899 24.1487 43.8483 23.1216 44.0001 21.9997V7.99975C43.8483 6.87786 43.2899 5.85075 42.4309 5.11338C41.5719 4.37602 40.472 3.97973 39.3401 3.99975H34.0001" stroke="#1E1E1E" stroke-width="2.5" stroke-linecap="round" stroke-linejoin="round"/>
</svg>
